<svg width="161" height="36" viewBox="0 0 161 36" fill="none" xmlns="http://www.w3.org/2000/svg">
<path fill-rule="evenodd" clip-rule="evenodd" d="M113 0L127.092 23.1546L120.456 35.7647L133.621 33.8823L136.883 23.5294L140.262 33.8823L153.777 36L146.795 23.2092L161 0L140.612 11.8824L136.883 23.5294L133.272 11.4118L113 0ZM7.10352 25.3164V34H0.933594V8.40625H11.1465C13.1035 8.40625 14.832 8.76953 16.332 9.49609C17.8438 10.2109 19.0098 11.2363 19.8301 12.5723C20.6621 13.8965 21.0781 15.4023 21.0781 17.0898C21.0781 19.5859 20.1816 21.584 18.3887 23.084C16.6074 24.5723 14.1582 25.3164 11.041 25.3164H7.10352ZM7.10352 20.5527H11.1465C12.3418 20.5527 13.25 20.2539 13.8711 19.6562C14.5039 19.0586 14.8203 18.2148 14.8203 17.125C14.8203 15.9297 14.498 14.9746 13.8535 14.2598C13.209 13.5449 12.3301 13.1816 11.2168 13.1699H7.10352V20.5527ZM31.2727 29.2539H42.013V34H25.1028V8.40625H31.2727V29.2539ZM64.9869 8.40625V25.1582C64.9869 27.0566 64.5826 28.7031 63.774 30.0977C62.9654 31.4805 61.8052 32.5352 60.2935 33.2617C58.7818 33.9883 56.9947 34.3516 54.9322 34.3516C51.815 34.3516 49.3599 33.543 47.567 31.9258C45.774 30.3086 44.8599 28.0938 44.8248 25.2812V8.40625H51.0298V25.4043C51.1002 28.2051 52.4009 29.6055 54.9322 29.6055C56.2095 29.6055 57.1763 29.2539 57.8326 28.5508C58.4888 27.8477 58.817 26.7051 58.817 25.123V8.40625H64.9869ZM90.9491 34H84.8143L75.744 18.0742V34H69.5741V8.40625H75.744L84.7967 24.332V8.40625H90.9491V34ZM111.444 23.1543H101.741V29.2539H113.202V34H95.5714V8.40625H113.237V13.1699H101.741V18.5664H111.444V23.1543Z" fill="white"/>
</svg>
